<svg width="508" height="286" viewBox="0 0 508 286" fill="none" xmlns="http://www.w3.org/2000/svg">
<path d="M181.622 218.31C181.622 230.816 191.168 232.296 195.904 232.296C197.458 232.296 198.494 232.148 198.494 232.148V226.154C198.494 226.154 197.828 226.228 196.792 226.228C193.98 226.228 188.8 225.266 188.8 217.644V200.106H197.754V194.556H188.8V184.27H181.77V194.556H175.332V200.106H181.622V218.31ZM203.034 232H221.978V226.45H216.058V214.462C216.058 206.47 221.238 200.254 228.564 200.254C234.558 200.254 235.668 204.398 235.668 209.652V232H248.692V226.45H242.846V208.024C242.846 198.478 238.776 193.668 229.97 193.668C222.496 193.668 217.612 198.626 215.984 202.252H215.836C215.836 202.252 216.058 200.92 216.058 199.144V179.756H202.664V185.306H208.954V226.45H203.034V232ZM253.563 213.278C253.563 224.378 261.629 232.888 273.395 232.888C282.349 232.888 287.973 227.708 287.973 227.708L285.013 222.454C285.013 222.454 280.351 226.672 273.839 226.672C267.179 226.672 261.333 222.232 260.889 213.944H288.269C288.269 213.944 288.491 212.168 288.491 211.206C288.491 201.512 282.941 193.668 272.285 193.668C261.629 193.668 253.563 201.364 253.563 213.278ZM261.185 209.356C262.221 203.066 266.661 199.366 272.137 199.366C276.873 199.366 280.869 202.77 281.091 209.356H261.185Z" fill="#8B8B8B"/>
<path d="M304.156 210.688C304.156 228.152 313.332 232.444 323.988 232.444C327.392 232.444 330.352 232.148 330.352 232.148L330.5 220.308C330.5 220.308 328.872 220.456 326.504 220.456C319.992 220.456 318.512 216.164 318.512 209.8V127.512H291.724V138.612H304.156V210.688ZM339.82 211.132C339.82 226.524 352.252 233.776 364.684 233.776C382.888 233.776 389.4 217.94 389.4 217.94H389.696C389.696 217.94 389.104 219.864 389.104 222.824V223.86C389.104 228.744 391.768 232 398.428 232H413.376V220.9H405.828C403.756 220.9 402.572 219.864 402.572 217.644V184.196C402.572 165.252 392.508 155.336 373.416 155.336C355.952 155.336 345 164.216 345 164.216L350.772 174.428C350.772 174.428 360.392 167.176 372.232 167.176C381.408 167.176 388.216 171.32 388.216 183.16V185.972H383.48C371.048 185.972 339.82 187.6 339.82 211.132ZM354.324 209.948C354.324 195.592 377.856 195.296 384.664 195.296H388.364V198.404C388.364 209.652 380.52 222.676 367.792 222.676C359.208 222.676 354.324 216.608 354.324 209.948ZM429.609 232H443.225V226.08C443.225 222.824 442.781 220.16 442.781 220.16H443.077C443.077 220.16 449.441 233.776 466.757 233.776C486.589 233.776 500.945 218.384 500.945 194.556C500.945 171.32 488.217 155.336 467.941 155.336C450.477 155.336 443.817 168.36 443.817 168.36H443.521C443.521 168.36 443.965 165.696 443.965 162.144V127.512H417.029V138.612H429.609V232ZM443.521 194.852C443.521 175.76 454.029 167.916 465.129 167.916C477.561 167.916 486.293 178.424 486.293 194.704C486.293 211.724 476.525 221.344 464.833 221.344C450.477 221.344 443.521 208.172 443.521 194.852Z" fill="#E16004"/>
<line x1="137.5" y1="103.5" x2="500.5" y2="103.5" stroke="#8B8B8B" stroke-width="9" stroke-linecap="round"/>
<path fill-rule="evenodd" clip-rule="evenodd" d="M80.8998 101.342C84.2135 101.342 86.8998 98.6557 86.8998 95.342C86.8998 92.0283 84.2135 89.342 80.8998 89.342C77.5861 89.342 74.8998 92.0283 74.8998 95.342C74.8998 98.6557 77.5861 101.342 80.8998 101.342ZM78.8999 117.342C78.8999 121.208 75.7658 124.342 71.8999 124.342C68.0339 124.342 64.8999 121.208 64.8999 117.342C64.8999 113.476 68.0339 110.342 71.8999 110.342C75.7658 110.342 78.8999 113.476 78.8999 117.342ZM90.8998 136.842C90.8998 140.432 87.9897 143.342 84.3998 143.342C80.81 143.342 77.8998 140.432 77.8998 136.842C77.8998 133.252 80.81 130.342 84.3998 130.342C87.9897 130.342 90.8998 133.252 90.8998 136.842ZM42.739 103.84L42.0551 99.3943C39.5987 99.7722 37.9137 102.07 38.2916 104.526C38.6694 106.982 40.9648 108.667 43.4204 108.29L43.4395 108.287L43.4857 108.281C43.551 108.272 43.6584 108.259 43.8016 108.242C44.0892 108.21 44.5145 108.169 45.0298 108.139C46.0863 108.078 47.4004 108.073 48.639 108.239C49.953 108.416 50.7415 108.731 51.0992 108.985C51.1171 108.998 51.1328 109.008 51.1465 109.017C51.2255 109.067 51.2393 109.075 51.2393 109.342V129.562C51.2103 129.659 51.1481 129.852 51.0241 130.164C50.7548 130.842 50.3203 131.772 49.7044 132.958C48.4781 135.32 46.6867 138.407 44.4807 142.006C40.0787 149.188 34.184 158.156 28.2574 166.953C22.3375 175.739 16.4144 184.312 11.9692 190.691C9.74714 193.88 7.89569 196.519 6.60024 198.36C5.95254 199.28 5.4439 200.001 5.09751 200.491C4.92431 200.736 4.79168 200.924 4.70252 201.05L4.57937 201.224C3.14535 203.213 1.84907 205.948 1.01009 208.889C0.166897 211.844 -0.308055 215.335 0.225128 218.78C0.770237 222.303 2.39905 225.871 5.78535 228.494C9.11364 231.071 13.6344 232.342 19.2393 232.342H134.9C140.505 232.342 145.025 231.071 148.354 228.494C151.74 225.871 153.369 222.303 153.914 218.78C154.447 215.335 153.972 211.844 153.129 208.889C152.29 205.948 150.994 203.213 149.56 201.224L149.437 201.05C149.347 200.924 149.215 200.736 149.042 200.491C148.695 200.001 148.187 199.28 147.539 198.36C146.243 196.519 144.392 193.88 142.17 190.691C137.725 184.312 131.802 175.739 125.882 166.953C119.955 158.156 114.06 149.188 109.658 142.006C107.452 138.407 105.661 135.32 104.435 132.958C103.819 131.772 103.384 130.842 103.115 130.164C102.991 129.852 102.929 129.659 102.9 129.562V109.342C102.9 109.075 102.914 109.067 102.993 109.017L103.013 109.003C103.021 108.998 103.03 108.992 103.04 108.985C103.398 108.731 104.186 108.416 105.5 108.239C106.739 108.073 108.053 108.078 109.109 108.139C109.625 108.169 110.05 108.21 110.338 108.242C110.481 108.259 110.588 108.272 110.653 108.281L110.689 108.286L110.718 108.29C113.173 108.667 115.47 106.982 115.847 104.526C116.225 102.07 114.54 99.7722 112.084 99.3943L111.4 103.841C112.084 99.3943 112.081 99.3939 112.081 99.3939L112.079 99.3935L112.072 99.3925L112.055 99.3899L112.006 99.3828C111.968 99.3772 111.917 99.37 111.854 99.3616C111.729 99.3448 111.557 99.3229 111.345 99.299C110.922 99.2513 110.331 99.1947 109.628 99.1542C108.247 99.0745 106.311 99.049 104.299 99.3197C102.363 99.5803 99.902 100.172 97.8221 101.652C95.5058 103.3 93.8998 105.905 93.8998 109.342V129.842C93.8998 131.217 94.396 132.595 94.7515 133.489C95.1779 134.562 95.764 135.789 96.4469 137.105C97.8182 139.746 99.7377 143.043 101.985 146.709C106.489 154.058 112.469 163.153 118.418 171.981C124.373 180.82 130.325 189.435 134.786 195.837C137.017 199.038 138.876 201.689 140.179 203.539C140.83 204.464 141.342 205.19 141.691 205.684L141.835 205.888L142.09 206.249L142.228 206.444C142.228 206.444 142.229 206.445 145.9 203.842L142.229 206.445L142.241 206.462L142.253 206.479C142.984 207.489 143.872 209.245 144.474 211.358C145.075 213.465 145.299 215.599 145.02 217.404C144.752 219.131 144.058 220.438 142.843 221.378C141.571 222.363 139.215 223.342 134.9 223.342H19.2393C14.9245 223.342 12.5679 222.363 11.2957 221.378C10.0815 220.438 9.38662 219.131 9.11925 217.404C8.83995 215.599 9.06371 213.465 9.66478 211.358C10.2674 209.245 11.1554 207.489 11.8856 206.479L11.8981 206.462L11.9104 206.445L8.23936 203.842C11.9104 206.445 11.9111 206.444 11.9111 206.444L12.0487 206.249C12.1393 206.121 12.2734 205.932 12.4481 205.684C12.7975 205.19 13.3094 204.464 13.9605 203.539C15.2627 201.689 17.1222 199.038 19.3533 195.837C23.8143 189.435 29.7662 180.82 35.7213 171.981C41.6697 163.153 47.6499 154.058 52.1542 146.709C54.4013 143.043 56.3209 139.746 57.6922 137.105C58.3751 135.789 58.9612 134.562 59.3876 133.489C59.7431 132.595 60.2393 131.217 60.2393 129.842V109.342C60.2393 105.905 58.6333 103.3 56.317 101.652C54.2371 100.172 51.7756 99.5803 49.8397 99.3197C47.8283 99.049 45.8924 99.0745 44.5114 99.1542C43.8079 99.1947 43.2176 99.2513 42.7942 99.299C42.582 99.3229 42.41 99.3448 42.285 99.3616C42.2224 99.37 42.1714 99.3772 42.1329 99.3828L42.0844 99.3899L42.0673 99.3925L42.0577 99.3939C42.0577 99.3939 42.0551 99.3943 42.739 103.84ZM18.8999 213.842C18.8999 213.842 18.8997 210.342 21.8999 205.842L53.9001 158.342C64.8166 150.583 72.0326 153.299 79.6544 156.168C85.5333 158.38 91.6536 160.684 99.8999 158.342L132.4 205.842C134.9 209.342 134.9 213.842 134.9 213.842H18.8999Z" fill="#8B8B8B"/>
<path class="logo-bulb" fill-rule="evenodd" clip-rule="evenodd" d="M67.1755 25.9308C69.9932 30.8112 70.5338 36.4041 69.0907 41.539C68.0581 45.2128 67.5605 49.8407 69.0785 54.3021L54.4212 62.7645C51.3165 59.2192 47.0598 57.3362 43.362 56.3935C38.1934 55.0759 33.6202 51.8112 30.8025 46.9308C25.2025 37.2314 28.6097 24.5506 38.7499 18.6962C48.89 12.8417 61.5755 16.2314 67.1755 25.9308ZM75.6219 54.2747C73.6946 50.9365 73.8239 46.8733 74.8669 43.1624C76.7245 36.5529 76.0392 29.2832 72.3717 22.9308C65.0599 10.2665 48.6637 6.04417 35.7499 13.5C22.836 20.9558 18.2945 37.2665 25.6063 49.9308C29.2738 56.2832 35.227 60.5115 41.8798 62.2075C45.6149 63.1597 49.1985 65.0794 51.1258 68.4176C51.8857 69.7338 53.5688 70.1848 54.8851 69.4249L74.6146 58.0341C75.9309 57.2741 76.3819 55.591 75.6219 54.2747ZM80.7062 62.1451C81.5371 63.5786 81.0485 65.4142 79.615 66.2451L60.0524 77.5832C58.6189 78.414 56.7833 77.9255 55.9525 76.492C55.1217 75.0585 55.6102 73.2229 57.0437 72.3921L76.6063 61.0539C78.0398 60.2231 79.8754 60.7117 80.7062 62.1451ZM63.0896 80.8539C66.7583 82.2581 71.0059 82.0569 74.6729 79.9397C78.34 77.8225 80.6381 74.2446 81.2564 70.3653L63.0896 80.8539Z" fill="#E16004"/>
</svg>
