<svg width="187" height="101" viewBox="0 0 187 101" fill="none" xmlns="http://www.w3.org/2000/svg">
<g filter="url(#filter0_b)">
<g filter="url(#filter1_d)">
<path d="M62.3956 74.9907C62.3956 79.2671 65.6598 79.7732 67.2793 79.7732C67.8107 79.7732 68.1649 79.7226 68.1649 79.7226V77.6729C68.1649 77.6729 67.9372 77.6982 67.5829 77.6982C66.6214 77.6982 64.8501 77.3693 64.8501 74.763V68.7659H67.9119V66.8681H64.8501V63.3508H62.4462V66.8681H60.2447V68.7659H62.3956V74.9907ZM69.7174 79.672H76.1952V77.7742H74.1709V73.6749C74.1709 70.942 75.9422 68.8165 78.4473 68.8165C80.497 68.8165 80.8765 70.2335 80.8765 72.0301V79.672H85.3301V77.7742H83.331V71.4734C83.331 68.2092 81.9393 66.5644 78.9281 66.5644C76.3724 66.5644 74.7023 68.2598 74.1456 69.4997H74.095C74.095 69.4997 74.1709 69.0442 74.1709 68.4369V61.8072H69.5909V63.705H71.7417V77.7742H69.7174V79.672ZM86.9958 73.27C86.9958 77.0656 89.7539 79.9756 93.7773 79.9756C96.8391 79.9756 98.7622 78.2043 98.7622 78.2043L97.7501 76.4077C97.7501 76.4077 96.1559 77.8501 93.9291 77.8501C91.6517 77.8501 89.6527 76.3318 89.5009 73.4977H98.8634C98.8634 73.4977 98.9394 72.8904 98.9394 72.5615C98.9394 69.2466 97.0415 66.5644 93.3977 66.5644C89.7539 66.5644 86.9958 69.196 86.9958 73.27ZM89.6021 71.9289C89.9564 69.778 91.4746 68.5128 93.3471 68.5128C94.9666 68.5128 96.333 69.6768 96.4089 71.9289H89.6021ZM104.296 72.3844C104.296 78.3561 107.434 79.8238 111.077 79.8238C112.241 79.8238 113.254 79.7226 113.254 79.7226L113.304 75.6739C113.304 75.6739 112.748 75.7245 111.938 75.7245C109.711 75.7245 109.205 74.2569 109.205 72.0807V43.9425H100.045V47.7381H104.296V72.3844ZM116.491 72.5362C116.491 77.7995 120.742 80.2793 124.993 80.2793C131.218 80.2793 133.445 74.8642 133.445 74.8642H133.546C133.546 74.8642 133.344 75.5221 133.344 76.5342V76.8885C133.344 78.5586 134.254 79.672 136.532 79.672H141.643V75.8763H139.062C138.354 75.8763 137.949 75.5221 137.949 74.763V63.3255C137.949 56.8476 134.508 53.4568 127.979 53.4568C122.007 53.4568 118.262 56.4933 118.262 56.4933L120.236 59.9853C120.236 59.9853 123.526 57.5055 127.574 57.5055C130.712 57.5055 133.04 58.9225 133.04 62.9712V63.9328H131.42C127.169 63.9328 116.491 64.4895 116.491 72.5362ZM121.451 72.1313C121.451 67.2223 129.497 67.1211 131.825 67.1211H133.091V68.1839C133.091 72.0301 130.408 76.4836 126.056 76.4836C123.121 76.4836 121.451 74.4087 121.451 72.1313ZM147.194 79.672H151.85V77.6476C151.85 76.5342 151.699 75.6233 151.699 75.6233H151.8C151.8 75.6233 153.976 80.2793 159.897 80.2793C166.679 80.2793 171.588 75.016 171.588 66.8681C171.588 58.9225 167.235 53.4568 160.302 53.4568C154.33 53.4568 152.053 57.9104 152.053 57.9104H151.952C151.952 57.9104 152.103 56.9994 152.103 55.7848V43.9425H142.893V47.7381H147.194V79.672ZM151.952 66.9693C151.952 60.4408 155.545 57.7585 159.34 57.7585C163.592 57.7585 166.577 61.3517 166.577 66.9187C166.577 72.7386 163.237 76.0282 159.239 76.0282C154.33 76.0282 151.952 71.524 151.952 66.9693Z" fill="white"/>
</g>
<g filter="url(#filter2_d)">
<line x1="47.3082" y1="35.3917" x2="171.435" y2="35.3916" stroke="white" stroke-width="3.07753" stroke-linecap="round"/>
</g>
<path fill-rule="evenodd" clip-rule="evenodd" d="M27.9538 34.6537C29.087 34.6537 30.0055 33.7352 30.0055 32.602C30.0055 31.4689 29.087 30.5504 27.9538 30.5504C26.8207 30.5504 25.9021 31.4689 25.9021 32.602C25.9021 33.7352 26.8207 34.6537 27.9538 34.6537ZM27.27 40.1249C27.27 41.4469 26.1983 42.5185 24.8763 42.5185C23.5543 42.5185 22.4827 41.4469 22.4827 40.1249C22.4827 38.8029 23.5543 37.7313 24.8763 37.7313C26.1983 37.7313 27.27 38.8029 27.27 40.1249ZM31.3733 46.7929C31.3733 48.0204 30.3782 49.0156 29.1507 49.0156C27.9231 49.0156 26.928 48.0204 26.928 46.7929C26.928 45.5654 27.9231 44.5702 29.1507 44.5702C30.3782 44.5702 31.3733 45.5654 31.3733 46.7929ZM14.9049 35.5086L14.6709 33.9877C13.831 34.117 13.2548 34.9026 13.384 35.7426C13.5132 36.5823 14.2981 37.1584 15.1378 37.0297L15.1601 37.0266C15.1825 37.0236 15.2192 37.0188 15.2682 37.0133C15.3665 37.0023 15.5119 36.9882 15.6881 36.978C16.0494 36.9572 16.4988 36.9552 16.9223 37.0123C17.3716 37.0727 17.6413 37.1803 17.7636 37.2673C17.7686 37.2709 17.7731 37.2738 17.7772 37.2764L17.7798 37.278C17.8068 37.2951 17.8115 37.2981 17.8115 37.3893V44.3037C17.8016 44.3365 17.7803 44.4028 17.7379 44.5095C17.6458 44.7412 17.4972 45.0591 17.2866 45.4648C16.8673 46.2726 16.2547 47.328 15.5004 48.5588C13.9951 51.0147 11.9794 54.0813 9.95284 57.0892C7.92856 60.0936 5.90316 63.0251 4.38312 65.2065C3.6233 66.297 2.9902 67.1993 2.54722 67.8288C2.32574 68.1435 2.15182 68.39 2.03337 68.5577L1.8983 68.7487L1.85619 68.8082C1.36583 69.4882 0.922569 70.4235 0.635683 71.4292C0.347353 72.4398 0.184944 73.6334 0.367265 74.8115C0.553664 76.016 1.11063 77.2364 2.26857 78.133C3.40668 79.0144 4.95254 79.449 6.86915 79.449H46.419C48.3356 79.449 49.8815 79.0144 51.0196 78.133C52.1775 77.2364 52.7345 76.016 52.9209 74.8115C53.1032 73.6334 52.9408 72.4398 52.6525 71.4292C52.3656 70.4235 51.9223 69.4882 51.432 68.8082L51.3899 68.7487L51.2548 68.5577C51.1364 68.39 50.9624 68.1435 50.741 67.8288C50.298 67.1993 49.6649 66.297 48.9051 65.2065C47.385 63.0251 45.3596 60.0936 43.3353 57.0892C41.3087 54.0813 39.293 51.0147 37.7878 48.5588C37.0335 47.328 36.4209 46.2726 36.0016 45.4648C35.7909 45.0591 35.6424 44.7412 35.5503 44.5095C35.5079 44.4028 35.4866 44.3365 35.4767 44.3037V37.3893C35.4767 37.2981 35.4814 37.2951 35.5084 37.278L35.514 37.2745C35.5157 37.2734 35.5174 37.2722 35.5193 37.271C35.521 37.2698 35.5228 37.2686 35.5246 37.2673C35.6469 37.1803 35.9165 37.0727 36.3659 37.0123C36.7894 36.9552 37.2388 36.9572 37.6 36.978C37.7762 36.9882 37.9217 37.0023 38.02 37.0133C38.069 37.0188 38.1057 37.0236 38.128 37.0266L38.1501 37.0296C38.9897 37.1583 39.7749 36.5823 39.9041 35.7426C40.0333 34.9026 39.4572 34.117 38.6172 33.9877L38.3833 35.5086C38.6172 33.9877 38.6163 33.9876 38.6163 33.9876L38.6154 33.9874L38.613 33.9871L38.6072 33.9862L38.5906 33.9838L38.5386 33.9765C38.4959 33.9708 38.4371 33.9633 38.3645 33.9551C38.2197 33.9388 38.0179 33.9195 37.7773 33.9056C37.3051 33.8784 36.6431 33.8696 35.9553 33.9622C35.2933 34.0513 34.4516 34.2537 33.7404 34.7597C32.9483 35.3233 32.3992 36.2141 32.3992 37.3893V44.3993C32.3992 44.8696 32.5688 45.3405 32.6904 45.6463C32.8362 46.0132 33.0366 46.433 33.2701 46.8828C33.7391 47.786 34.3954 48.9132 35.1639 50.167C36.7041 52.6799 38.749 55.7898 40.7831 58.8088C42.8194 61.8312 44.8546 64.7769 46.3801 66.966C47.143 68.0608 47.7788 68.9671 48.2241 69.5999C48.4468 69.9163 48.6218 70.1643 48.7413 70.3335L48.7905 70.403L48.8778 70.5266L48.9249 70.5931C48.9249 70.5931 48.9252 70.5934 50.1805 69.7034L48.9252 70.5934L48.9294 70.5993L48.9336 70.6052C49.1833 70.9505 49.487 71.5511 49.693 72.2734C49.8986 72.9939 49.9751 73.7237 49.8796 74.3409C49.7882 74.9316 49.5505 75.3783 49.1353 75.6998C48.7003 76.0367 47.8945 76.3714 46.419 76.3714H6.86915C5.39369 76.3714 4.58786 76.0367 4.15283 75.6998C3.73763 75.3783 3.50002 74.9316 3.4086 74.3409C3.31309 73.7237 3.3896 72.9939 3.59514 72.2734C3.8012 71.5511 4.10484 70.9505 4.35456 70.6052L4.35882 70.5993L4.36302 70.5934L3.10772 69.7034C4.36302 70.5934 4.36325 70.5931 4.36325 70.5931L4.41032 70.5266L4.54689 70.3335C4.66637 70.1643 4.8414 69.9163 5.06405 69.5999C5.50934 68.9671 6.14519 68.0608 6.9081 66.966C8.43354 64.7769 10.4688 61.8312 12.5051 58.8088C14.5392 55.7898 16.5841 52.6799 18.1243 50.167C18.8927 48.9132 19.5491 47.786 20.018 46.8828C20.2515 46.433 20.452 46.0132 20.5978 45.6463C20.7193 45.3405 20.889 44.8696 20.889 44.3993V37.3893C20.889 36.2141 20.3398 35.3233 19.5478 34.7597C18.8366 34.2537 17.9949 34.0513 17.3329 33.9622C16.6451 33.8696 15.9831 33.8784 15.5109 33.9056C15.2703 33.9195 15.0685 33.9388 14.9237 33.9551C14.8511 33.9633 14.7923 33.9708 14.7496 33.9765L14.6975 33.9838L14.681 33.9862L14.6751 33.9871L14.6718 33.9876C14.6718 33.9876 14.6709 33.9877 14.9049 35.5086ZM6.75306 73.1229C6.75306 73.1229 6.753 71.9261 7.7789 70.3873L18.7213 54.1448C22.4542 51.4915 24.9217 52.4202 27.528 53.4013C29.5382 54.1579 31.6311 54.9457 34.4509 54.1448L45.5642 70.3873C46.4191 71.5841 46.4191 73.1229 46.4191 73.1229H6.75306Z" fill="white"/>
<path fill-rule="evenodd" clip-rule="evenodd" d="M23.2608 8.86701C24.2244 10.5359 24.4092 12.4483 23.9157 14.2042C23.5627 15.4604 23.3925 17.0429 23.9116 18.5685L18.8995 21.4622C17.8379 20.2499 16.3823 19.606 15.1178 19.2837C13.3505 18.8331 11.7866 17.7168 10.8231 16.0479C8.90823 12.7312 10.0733 8.39503 13.5407 6.39312C17.0082 4.3912 21.3459 5.55029 23.2608 8.86701ZM26.1491 18.5591C25.49 17.4177 25.5343 16.0282 25.8909 14.7593C26.5261 12.4992 26.2918 10.0133 25.0377 7.84116C22.5374 3.5106 16.9308 2.06679 12.5149 4.6163C8.09902 7.16581 6.54607 12.7432 9.04632 17.0738C10.3004 19.2459 12.3361 20.6918 14.611 21.2718C15.8882 21.5974 17.1136 22.2538 17.7727 23.3953C18.0325 23.8454 18.6081 23.9996 19.0582 23.7397L25.8046 19.8447C26.2547 19.5848 26.4089 19.0092 26.1491 18.5591ZM27.8876 21.2504C28.1717 21.7406 28.0047 22.3683 27.5145 22.6524L20.8251 26.5294C20.3349 26.8135 19.7072 26.6465 19.4231 26.1563C19.139 25.6661 19.3061 25.0384 19.7963 24.7543L26.4857 20.8773C26.9759 20.5932 27.6035 20.7602 27.8876 21.2504ZM21.8636 27.6478C23.1182 28.128 24.5706 28.0592 25.8246 27.3352C27.0785 26.6113 27.8643 25.3878 28.0758 24.0613L21.8636 27.6478Z" fill="white"/>
</g>
<defs>
<filter id="filter0_b" x="-1.07751" y="-1.36779" width="176.445" height="100.533" filterUnits="userSpaceOnUse" color-interpolation-filters="sRGB">
<feFlood flood-opacity="0" result="BackgroundImageFix"/>
<feGaussianBlur in="BackgroundImage" stdDeviation="0.683897"/>
<feComposite in2="SourceAlpha" operator="in" result="effect1_backgroundBlur"/>
<feBlend mode="normal" in="SourceGraphic" in2="effect1_backgroundBlur" result="shape"/>
</filter>
<filter id="filter1_d" x="46.5668" y="37.1035" width="138.699" height="63.6927" filterUnits="userSpaceOnUse" color-interpolation-filters="sRGB">
<feFlood flood-opacity="0" result="BackgroundImageFix"/>
<feColorMatrix in="SourceAlpha" type="matrix" values="0 0 0 0 0 0 0 0 0 0 0 0 0 0 0 0 0 0 127 0"/>
<feOffset dy="6.83897"/>
<feGaussianBlur stdDeviation="6.83897"/>
<feColorMatrix type="matrix" values="0 0 0 0 0 0 0 0 0 0 0 0 0 0 0 0 0 0 0.25 0"/>
<feBlend mode="normal" in2="BackgroundImageFix" result="effect1_dropShadow"/>
<feBlend mode="normal" in="SourceGraphic" in2="effect1_dropShadow" result="shape"/>
</filter>
<filter id="filter2_d" x="32.0915" y="27.0139" width="154.561" height="30.4334" filterUnits="userSpaceOnUse" color-interpolation-filters="sRGB">
<feFlood flood-opacity="0" result="BackgroundImageFix"/>
<feColorMatrix in="SourceAlpha" type="matrix" values="0 0 0 0 0 0 0 0 0 0 0 0 0 0 0 0 0 0 127 0"/>
<feOffset dy="6.83897"/>
<feGaussianBlur stdDeviation="6.83897"/>
<feColorMatrix type="matrix" values="0 0 0 0 0 0 0 0 0 0 0 0 0 0 0 0 0 0 0.25 0"/>
<feBlend mode="normal" in2="BackgroundImageFix" result="effect1_dropShadow"/>
<feBlend mode="normal" in="SourceGraphic" in2="effect1_dropShadow" result="shape"/>
</filter>
</defs>
</svg>
